<svg width="288" height="261" viewBox="0 0 288 261" fill="none" xmlns="http://www.w3.org/2000/svg">
<g clip-path="url(#clip0_1_6)">
<path opacity="0.3" d="M122.5 331C213.903 331 288 256.903 288 165.5C288 74.0969 213.903 0 122.5 0C31.0969 0 -43 74.0969 -43 165.5C-43 256.903 31.0969 331 122.5 331Z" fill="#121212"/>
<g clip-path="url(#clip1_1_6)">
<path d="M135.595 62C168.348 62 195 88.6059 195 121.315C195 154.023 168.348 180.67 135.595 180.67C124.491 180.67 114.12 177.546 105.215 172.223C104.121 173.512 102.701 175.203 101.031 177.229C97.5517 181.45 93.0783 186.92 88.6911 192.337C79.9168 203.173 71.4295 213.774 71.4295 213.774C71.0255 214.357 70.5059 214.85 69.903 215.224C69.3 215.597 68.6266 215.843 67.9245 215.945C67.2225 216.048 66.5068 216.006 65.8219 215.82C65.1371 215.635 64.4977 215.311 63.9435 214.868C63.3893 214.426 62.9321 213.875 62.6004 213.248C62.2686 212.622 62.0695 211.934 62.0152 211.227C61.9609 210.521 62.0527 209.811 62.2848 209.141C62.5169 208.472 62.8845 207.857 63.3646 207.335C63.3646 207.335 71.8725 196.718 80.6667 185.858C85.0638 180.428 89.5315 174.933 93.047 170.668C94.5357 168.862 95.721 167.427 96.7964 166.147C84.1937 155.252 76.1593 139.214 76.1592 121.315C76.1593 88.6059 102.842 62 135.595 62ZM135.595 72.3351C108.435 72.3351 86.5183 94.1915 86.5183 121.315C86.5183 148.438 108.435 170.325 135.595 170.325C162.755 170.325 184.681 148.438 184.681 121.315C184.681 94.1915 162.755 72.3351 135.595 72.3351Z" fill="#121212"/>
</g>
</g>
<defs>
<clipPath id="clip0_1_6">
<rect width="288" height="261" fill="white"/>
</clipPath>
<clipPath id="clip1_1_6">
<rect width="133" height="154" fill="white" transform="translate(62 62)"/>
</clipPath>
</defs>
</svg>
