<svg width="195" height="195" fill="none" xmlns="http://www.w3.org/2000/svg"><circle opacity=".3" cx="97.5" cy="97.5" r="97.5" fill="#121212"/><path fill-rule="evenodd" clip-rule="evenodd" d="M75.967 70.4c0-3.819 5.015-6.033 8.612-4.54 4.122 2.743 39.165 22.771 42.335 25.445 3.169 2.674 4.078 6.919-.216 10.076-4.293 3.157-38.42 23.541-42.118 25.311-3.7 1.77-8.459-.638-8.613-5.118-.154-4.479 0-47.354 0-51.173Zm5.177 3.317c0 .975-.029 44.126-.083 45.014-.088 1.456 1.156 2.919 2.89 2.051 1.734-.868 37.577-22.563 39-23.125 1.424-.562 1.33-1.994 0-2.889-1.329-.895-37.825-22.085-38.892-23.015-1.068-.931-2.915.466-2.915 1.964Z" fill="#121212"/></svg>